<mxfile host="app.diagrams.net" modified="2023-04-04T07:48:22.498Z" agent="5.0 (Windows NT 10.0; Win64; x64) AppleWebKit/537.36 (KHTML, like Gecko) Chrome/111.0.0.0 Safari/537.36" etag="N368K8rxRFJ6bBJgaB8N" version="21.0.6" type="github">
  <diagram name="第 1 页" id="OIZhDe9uAFBpRoL3yOJO">
    <mxGraphModel dx="1434" dy="764" grid="1" gridSize="10" guides="1" tooltips="1" connect="1" arrows="1" fold="1" page="1" pageScale="1" pageWidth="827" pageHeight="1169" math="0" shadow="0">
      <root>
        <mxCell id="0" />
        <mxCell id="1" parent="0" />
        <mxCell id="0maAN2WWbGSFRSJTBHBX-1" value="基础资源" style="rounded=1;whiteSpace=wrap;html=1;" vertex="1" parent="1">
          <mxGeometry x="320" y="450" width="160" height="90" as="geometry" />
        </mxCell>
        <mxCell id="0maAN2WWbGSFRSJTBHBX-2" value="操作系统" style="rounded=1;whiteSpace=wrap;html=1;" vertex="1" parent="1">
          <mxGeometry x="120" y="350" width="170" height="80" as="geometry" />
        </mxCell>
        <mxCell id="0maAN2WWbGSFRSJTBHBX-5" value="网络" style="rounded=1;whiteSpace=wrap;html=1;" vertex="1" parent="1">
          <mxGeometry x="125" y="570" width="160" height="85" as="geometry" />
        </mxCell>
        <mxCell id="0maAN2WWbGSFRSJTBHBX-7" value="数据库" style="rounded=1;whiteSpace=wrap;html=1;" vertex="1" parent="1">
          <mxGeometry x="530" y="340" width="180" height="80" as="geometry" />
        </mxCell>
        <mxCell id="0maAN2WWbGSFRSJTBHBX-12" value="中间件" style="rounded=1;whiteSpace=wrap;html=1;" vertex="1" parent="1">
          <mxGeometry x="540" y="560" width="190" height="85" as="geometry" />
        </mxCell>
      </root>
    </mxGraphModel>
  </diagram>
</mxfile>
